<?xml version="1.0" encoding="UTF-8" standalone="no"?>
<svg
   xmlns:dc="http://purl.org/dc/elements/1.1/"
   xmlns:cc="http://creativecommons.org/ns#"
   xmlns:rdf="http://www.w3.org/1999/02/22-rdf-syntax-ns#"
   xmlns:svg="http://www.w3.org/2000/svg"
   xmlns="http://www.w3.org/2000/svg"
   xmlns:sodipodi="http://sodipodi.sourceforge.net/DTD/sodipodi-0.dtd"
   xmlns:inkscape="http://www.inkscape.org/namespaces/inkscape"
   width="210mm"
   height="290mm"
   viewBox="0 50 210 210"
   version="1.1"
   id="svg1380"
   sodipodi:docname="logoCand.svg"
   inkscape:version="1.0.2 (1.0.2+r75+1)">
  <defs
     id="defs1374" />
  <sodipodi:namedview
     id="base"
     pagecolor="#ffffff"
     bordercolor="#666666"
     borderopacity="1.0"
     inkscape:pageopacity="0.0"
     inkscape:pageshadow="2"
     inkscape:zoom="0.7"
     inkscape:cx="389.09154"
     inkscape:cy="590.95381"
     inkscape:document-units="mm"
     inkscape:current-layer="layer1"
     inkscape:document-rotation="0"
     showgrid="false"
     inkscape:window-width="1920"
     inkscape:window-height="1043"
     inkscape:window-x="0"
     inkscape:window-y="0"
     inkscape:window-maximized="1" />
  <metadata
     id="metadata1377">
    <rdf:RDF>
      <cc:Work
         rdf:about="">
        <dc:format>image/svg+xml</dc:format>
        <dc:type
           rdf:resource="http://purl.org/dc/dcmitype/StillImage" />
        <dc:title></dc:title>
      </cc:Work>
    </rdf:RDF>
  </metadata>
  <g
     inkscape:label="Layer 1"
     inkscape:groupmode="layer"
     id="layer1">
     <g>
      <path
       sodipodi:type="star"
       style="fill:#483737;fill-opacity:0;stroke:#ffffff;stroke-width:1.32292;stroke-miterlimit:4;stroke-dasharray:none;stroke-opacity:1"
       id="path2021"
       sodipodi:sides="5"
       sodipodi:cx="107.21965"
       sodipodi:cy="151.11909"
       sodipodi:r1="103.22382"
       sodipodi:r2="31.241926"
       sodipodi:arg1="0.93376307"
       sodipodi:arg2="1.5620816"
       inkscape:flatsided="false"
       inkscape:rounded="0"
       inkscape:randomized="0"
       d="M 168.61854,234.09701 107.49191,182.35983 47.276269,235.1545 77.592074,161.03195 8.77371,120.07792 l 79.86283,5.92692 17.68355,-78.105649 19.04214,77.785579 79.7474,-7.31791 -68.09414,42.14722 z"
       inkscape:transform-center-x="0.27797939"
       inkscape:transform-center-y="-9.5922524" />
      <animateTransform
      xlink-href="path2021-8"
      attributeName="transform" 
      attributeType="XML"
      type="rotate"
      from="0 107.21965 151.11909"
      to="360 107.21965 151.11909" 
      dur="10s"
      begin="0s"
      repeatCount="indefinite"
      fill="freeze" />
   </g>
   <g>
    <path
       sodipodi:type="star"
       style="fill:#483737;fill-opacity:0;stroke:#ffffff;stroke-width:1.32292;stroke-miterlimit:4;stroke-dasharray:none;stroke-opacity:1"
       id="path2021-8"
       sodipodi:sides="5"
       sodipodi:cx="107.21965"
       sodipodi:cy="151.11909"
       sodipodi:r1="103.22382"
       sodipodi:r2="31.241926"
       sodipodi:arg1="0.93376307"
       sodipodi:arg2="1.5620816"
       inkscape:flatsided="false"
       inkscape:rounded="0"
       inkscape:randomized="0"
       inkscape:transform-center-x="-0.40089846"
       inkscape:transform-center-y="9.4749375"
       d="M 168.61854,234.09701 107.49191,182.35983 47.276269,235.1545 77.592074,161.03195 8.77371,120.07792 l 79.86283,5.92692 17.68355,-78.105649 19.04214,77.785579 79.7474,-7.31791 -68.09414,42.14722 z"
       transform="rotate(-36.220813,107.21965,151.1191)" />
    <animateTransform
      xlink-href="path2021-8"
      attributeName="transform" 
      attributeType="XML"
      type="rotate"
      from="0 107.21965 151.11909"
      to="360 107.21965 151.11909" 
      dur="10s"
      begin="0s"
      repeatCount="indefinite"/>
   </g>
   <g>
    <path
       sodipodi:type="star"
       style="fill:#483737;fill-opacity:0;stroke:#ffffff;stroke-width:1.32292;stroke-miterlimit:4;stroke-dasharray:none;stroke-opacity:1"
       id="path2021-4"
       sodipodi:sides="5"
       sodipodi:cx="107.21965"
       sodipodi:cy="151.11909"
       sodipodi:r1="103.22382"
       sodipodi:r2="31.241926"
       sodipodi:arg1="0.93376307"
       sodipodi:arg2="1.5620816"
       inkscape:flatsided="false"
       inkscape:rounded="0"
       inkscape:randomized="0"
       inkscape:transform-center-x="9.2885232"
       inkscape:transform-center-y="0.59592275"
       d="M 168.61854,234.09701 107.49191,182.35983 47.276269,235.1545 77.592074,161.03195 8.77371,120.07792 l 79.86283,5.92692 17.68355,-78.105649 19.04214,77.785579 79.7474,-7.31791 -68.09414,42.14722 z"
       transform="rotate(-18.571158,107.21965,151.1191)" 
       />
       <animateTransform
      xlink-href="path2021-8"
      attributeName="transform" 
      attributeType="XML"
      type="rotate"
      from="0 107.21965 151.11909"
      to="360 107.21965 151.11909" 
      dur="10s"
      begin="0s"
      repeatCount="indefinite"
      fill="freeze" />
   </g>
   <g>
    <path
       sodipodi:type="star"
       style="fill:#483737;fill-opacity:0;stroke:#ffffff;stroke-width:1.32292;stroke-miterlimit:4;stroke-dasharray:none;stroke-opacity:1"
       id="path2021-88"
       sodipodi:sides="5"
       sodipodi:cx="107.21965"
       sodipodi:cy="151.11909"
       sodipodi:r1="103.22382"
       sodipodi:r2="31.241926"
       sodipodi:arg1="0.93376307"
       sodipodi:arg2="1.5620816"
       inkscape:flatsided="false"
       inkscape:rounded="0"
       inkscape:randomized="0"
       inkscape:transform-center-x="-9.4217995"
       inkscape:transform-center-y="-0.45653465"
       d="M 168.61854,234.09701 107.49191,182.35983 47.276269,235.1545 77.592074,161.03195 8.77371,120.07792 l 79.86283,5.92692 17.68355,-78.105649 19.04214,77.785579 79.7474,-7.31791 -68.09414,42.14722 z"
       transform="rotate(17.679253,107.21965,151.1191)" />
      <animateTransform
      xlink-href="path2021-8"
      attributeName="transform" 
      attributeType="XML"
      type="rotate"
      from="0 107.21965 151.11909"
      to="360 107.21965 151.11909" 
      dur="10s"
      begin="0s"
      repeatCount="indefinite"
      fill="freeze" />
   </g>
    <path
       style="fill:#483737;fill-opacity:0;stroke:#ffffff;stroke-width:1.32292;stroke-miterlimit:4;stroke-dasharray:none;stroke-opacity:1"
       id="path2139"
       d="m 91.370048,162.70274 c 0.844569,-1.01517 1.678109,-2.04542 2.432863,-3.12974 0.619752,-0.97738 1.21123,-1.97048 1.78931,-2.97209 0.421376,-0.73078 1.027658,-1.31009 1.583436,-1.93142 0.647036,-0.64074 1.014802,-1.47767 1.425337,-2.2742 0.266415,-0.73793 0.635895,-1.42507 0.824741,-2.18942 0.16251,-1.15342 0.940975,-2.10068 1.583725,-3.03528 0.78298,-1.09154 1.58244,-2.16941 2.34372,-3.27607 0.67113,-1.1507 1.0476,-2.43327 1.43433,-3.69895 0.2223,-0.98671 0.57245,-1.93226 0.74071,-2.93026 0.0368,-0.13436 0.0737,-0.26872 0.11053,-0.40308 0,0 -5.04564,2.41824 -5.04564,2.41824 v 0 c -0.0322,0.14398 -0.0644,0.28796 -0.0966,0.43194 -0.20043,0.96081 -0.500271,1.89996 -0.73044,2.85382 -0.388241,1.22664 -0.784251,2.46917 -1.508455,3.54668 -0.765773,1.09572 -1.564066,2.16838 -2.318118,3.27252 -0.667499,1.00771 -1.377908,2.00894 -1.582246,3.22712 -0.235754,0.71158 -0.551661,1.39835 -0.856665,2.08186 -0.402627,0.77544 -0.843835,1.52545 -1.480915,2.13638 -0.585753,0.62075 -1.116269,1.29152 -1.531535,2.04026 -0.578226,0.9835 -1.131602,1.98255 -1.790282,2.91622 -0.784381,1.07121 -1.602034,2.1184 -2.485126,3.11055 0,0 5.15729,-2.19508 5.15729,-2.19508 z" />
    <g
       id="g2150"
       transform="translate(-3.00462,-0.78026)"
       style="stroke:#ffffff;stroke-opacity:1">
      <path
         style="fill:#483737;fill-opacity:0;stroke:#ffffff;stroke-width:1.32292;stroke-miterlimit:4;stroke-dasharray:none;stroke-opacity:1"
         id="path2141"
         d="m 95.048339,160.27715 c 1.401667,-1.11146 2.704541,-2.34233 3.914023,-3.65992 1.223038,-1.37511 2.141308,-2.95272 2.900388,-4.61822 0.71859,-1.67452 1.01575,-3.46877 1.28875,-5.25797 0.29853,-2.21397 0.39284,-4.449 0.44623,-6.68031 0.22149,-1.26248 -0.29233,-2.55665 -0.0891,-3.80727 0.0664,-0.0484 0.12206,-0.11716 0.19931,-0.14531 1.53095,-0.55773 -2.76565,1.7236 -4.154474,2.57567 -0.109861,0.0674 0.246737,-0.0759 0.372943,-0.10208 0.350181,-0.0726 0.441341,-0.0593 0.794321,-0.0684 1.72008,0.10368 3.3848,0.58617 5.05373,0.98095 1.58251,0.43495 3.20983,0.54003 4.84105,0.59221 2.14229,0.0791 4.27899,-0.142 6.39307,-0.46832 1.38936,-0.29278 2.79559,-0.46936 4.20076,-0.65952 1.02556,-0.14477 1.07305,-0.52019 1.23124,0.54277 0.18298,1.77101 0.31592,3.54434 0.39309,5.3232 0.0704,1.98019 0.0713,3.96207 0.0725,5.94326 0.0526,1.60579 -0.22358,3.19962 -0.59224,4.75659 -0.22284,1.05598 -0.59099,2.05652 -1.19109,2.95344 -0.62094,0.82456 -1.40659,1.51475 -2.17597,2.19859 -0.39107,0.40927 -0.18947,0.22517 -0.5999,0.55763 0,0 5.18924,-2.11394 5.18924,-2.11394 v 0 c 0.37671,-0.36704 0.18378,-0.17991 0.5789,-0.56128 0.7578,-0.73135 1.57567,-1.42012 2.11501,-2.34041 0.53812,-0.96821 0.87004,-2.01932 1.08285,-3.10588 0.32693,-1.59414 0.56594,-3.21565 0.50195,-4.84778 -0.011,-1.98463 -0.0322,-3.96924 -0.10039,-5.9529 -0.0729,-1.81037 -0.20321,-3.61595 -0.34482,-5.42209 -0.19992,-1.16869 -0.46876,-1.6484 -1.70485,-1.28794 -1.40692,0.30354 -2.87334,0.32209 -4.26826,0.71415 -2.07911,0.38414 -4.19493,0.60635 -6.31155,0.54388 -1.60697,-0.0466 -3.21657,-0.11994 -4.78674,-0.49934 -1.67622,-0.3712 -3.32672,-0.87321 -5.02956,-1.10951 -2.53059,-0.34801 -4.02939,1.4241 -6.468231,2.84634 -0.108421,0.0632 -0.170281,0.18952 -0.222864,0.30349 -0.052,0.11271 -0.05633,0.24178 -0.08449,0.36267 0.0045,1.26087 0.329814,2.51045 0.206542,3.77807 -0.05233,2.20879 -0.125836,4.42352 -0.475491,6.60931 -0.310584,1.75211 -0.638723,3.50989 -1.388155,5.13837 -0.773261,1.6151 -1.722713,3.13318 -2.94877,4.44904 -1.249548,1.30338 -2.576341,2.53829 -4.037979,3.60294 0,0 5.198989,-2.06422 5.198989,-2.06422 z" />
      <path
         style="fill:#483737;fill-opacity:0;stroke:#ffffff;stroke-width:1.32292;stroke-miterlimit:4;stroke-dasharray:none;stroke-opacity:1"
         id="path2143"
         d="m 95.922575,160.20468 c -1.027867,0.0691 -2.074815,0.0836 -3.039851,0.47254 -3.730151,2.17496 -5.355696,1.92877 -5.918382,5.27226 -0.08469,0.8415 -0.187923,1.7039 -0.06088,2.54474 0.116779,0.98937 0.951339,1.31556 1.796402,1.58672 1.061657,0.34495 2.08557,0.2699 3.130899,-0.0698 2.282029,-0.92685 0.543994,-0.19621 5.622041,-3.18222 0.31581,-0.18571 0.401106,-0.27211 0.600372,-0.5824 0.133466,-0.20784 0.387882,-0.73529 0.490894,-0.94215 0.431218,-1.05465 0.78517,-2.14854 1.021274,-3.26474 0.259498,-1.05744 0.0037,-2.05855 -0.247563,-3.0836 -0.04948,-0.14096 -0.09896,-0.28192 -0.148442,-0.42288 0,0 -4.89807,2.708 -4.89807,2.708 v 0 c 0.04358,0.12376 0.08716,0.24752 0.130736,0.37128 0.237596,0.95664 0.413975,1.87568 0.133102,2.85271 -0.25155,1.06953 -0.579404,2.13449 -1.078199,3.11602 -0.256929,0.42117 -0.472109,0.76274 -0.875501,1.05416 -0.109942,0.0794 -0.457372,0.29125 -0.339066,0.22493 5.615448,-3.14798 5.814227,-3.24678 3.98825,-2.28519 -1.01464,0.40546 -1.827236,0.66455 -2.923797,0.35226 -0.751157,-0.18967 -1.325316,-0.1931 -1.437769,-1.04255 -0.0764,-0.78974 0.0058,-1.59319 0.123124,-2.37507 0.13263,-0.58054 0.285493,-1.11946 0.692927,-1.57398 0.09169,-0.10228 0.418243,-0.35055 0.297411,-0.28523 -1.503326,0.81273 -2.971258,1.68929 -4.456885,2.53393 0.893693,-0.623 1.806186,-0.57964 2.854637,-0.67951 0,0 4.542332,-3.3002 4.542332,-3.3002 z" />
      <path
         style="fill:#483737;fill-opacity:0;stroke:#ffffff;stroke-width:1.32292;stroke-miterlimit:4;stroke-dasharray:none;stroke-opacity:1"
         id="path2145"
         d="m 122.45679,158.94933 c -2.8084,1.36667 -5.70342,2.73299 -8.12013,4.72342 -0.75463,0.64928 -1.10273,1.61512 -1.61064,2.44818 -0.40413,0.72494 -0.70799,1.51881 -0.6952,2.35571 0.10553,0.81245 0.51737,1.39032 1.11776,1.9162 0.63213,0.51524 1.28153,0.9004 2.07434,1.09655 0.91387,0.19272 1.81413,0.20119 2.72413,0.0113 2.72862,-0.92875 5.16581,-2.5459 7.57738,-4.1 0.91861,-0.72843 1.75537,-1.56264 2.2485,-2.63562 0.39021,-1.16058 0.42469,-2.38113 0.3175,-3.58815 -0.12968,-1.0204 -0.4924,-1.94401 -1.05455,-2.79807 -0.44728,-0.5695 -1.0233,-0.98066 -1.63657,-1.35061 -0.11146,-0.0621 -0.22292,-0.12414 -0.33438,-0.18621 0,0 -4.69073,3.06986 -4.69073,3.06986 v 0 c 0.10516,0.053 0.21033,0.10594 0.31549,0.15891 0.54421,0.33518 1.08826,0.65602 1.51528,1.1441 0.534,0.75981 0.84592,1.6061 0.93923,2.5339 0.0856,1.12124 0.0277,2.26913 -0.46145,3.30245 -0.59686,0.95689 -1.40626,1.74947 -2.35128,2.36656 -1.88626,1.16791 -0.76455,0.46566 3.8368,-2.17392 0.15101,-0.0866 -0.30033,0.17655 -0.45514,0.25619 -0.69202,0.35599 -0.23017,0.0898 -0.92883,0.39295 -0.13735,0.0596 -0.26814,0.13333 -0.40221,0.19999 -0.84677,0.29437 -1.68154,0.3557 -2.56975,0.20023 -0.78524,-0.12004 -1.27708,-0.38717 -1.90713,-0.86693 -0.48527,-0.40279 -0.85279,-0.80597 -0.86298,-1.47671 0.0884,-0.75543 0.39764,-1.45025 0.78981,-2.09736 0.46646,-0.82327 0.88043,-1.69167 1.68418,-2.24665 0.30828,-0.22039 1.2707,-0.82445 0.93976,-0.63981 -1.395,0.77832 -2.77711,1.57951 -4.16416,2.37191 -0.21196,0.12109 0.42331,-0.24342 0.63887,-0.35796 0.20309,-0.10792 0.40883,-0.21095 0.61674,-0.30925 0.17065,-0.0807 0.34572,-0.15167 0.51858,-0.22751 0,0 4.39078,-3.4937 4.39078,-3.4937 z" />
    </g>
  </g>
</svg>
